<svg width="512" height="512" viewBox="0 0 512 512" fill="none" xmlns="http://www.w3.org/2000/svg">
  <rect width="512" height="512" rx="112" fill="#05080F"/>
  <path d="M392 188C380.8 173.2 362.5 168 320 168H256L220 136H168L216 192H152L184 224H232L272 264H224L256 296H304L344 336L296 376L360 384L392 356C409 340.5 416 317 416 292.5C416 260.6 403.2 233 392 218.5V188Z" fill="url(#paint0_linear)"/>
  <circle cx="184" cy="320" r="20" fill="url(#paint1_linear)" />
  <circle cx="332" cy="232" r="18" fill="#E6FFF6" opacity="0.8"/>
  <defs>
    <linearGradient id="paint0_linear" x1="160" y1="136" x2="404" y2="384" gradientUnits="userSpaceOnUse">
      <stop stop-color="#6CB2FF"/>
      <stop offset="1" stop-color="#63E8C1"/>
    </linearGradient>
    <linearGradient id="paint1_linear" x1="164" y1="300" x2="204" y2="340" gradientUnits="userSpaceOnUse">
      <stop stop-color="#6CB2FF"/>
      <stop offset="1" stop-color="#63E8C1"/>
    </linearGradient>
  </defs>
</svg>
